<svg width="40" height="40" viewBox="0 0 40 40" fill="none" xmlns="http://www.w3.org/2000/svg">
<path d="M28.2396 10C30.3341 10 32.0457 11.6394 32.1612 13.7049L32.1674 13.9278V25.4091C32.1674 27.5036 30.5281 29.2152 28.4625 29.3308L28.2396 29.337H17.9654C17.0419 29.337 16.1508 29.0117 15.4463 28.4228L15.2589 28.2556L9.22132 22.515C7.64924 21.0202 7.58656 18.5341 9.08133 16.962L9.22132 16.822L15.2589 11.0813C15.9282 10.445 16.7981 10.0667 17.7145 10.008L17.9654 10H28.2396ZM28.2396 11.8128H17.9654C17.4908 11.8128 17.032 11.9724 16.6613 12.2627L16.5081 12.3951L10.4705 18.1358L10.3951 18.2111C9.63757 19.0078 9.6229 20.2406 10.3295 21.0538L10.4705 21.2012L16.5081 26.9419C16.8521 27.269 17.2945 27.4694 17.7632 27.5144L17.9654 27.5241H28.2396C29.3493 27.5241 30.2594 26.6695 30.3476 25.5826L30.3546 25.4091V13.9278C30.3546 12.8182 29.5 11.9081 28.4131 11.8199L28.2396 11.8128ZM19.4126 15.3141L19.5142 15.4019L22.4991 18.3862L25.4837 15.4019C25.8377 15.0479 26.4116 15.0479 26.7656 15.4019C27.0874 15.7237 27.1166 16.2272 26.8533 16.5821L26.7656 16.6837L23.7814 19.6685L26.7656 22.6532C27.1196 23.0072 27.1196 23.5811 26.7656 23.9351C26.4438 24.2569 25.9402 24.2862 25.5854 24.0229L25.4837 23.9351L22.4991 20.9508L19.5142 23.9351C19.1602 24.2891 18.5863 24.2891 18.2323 23.9351C17.9105 23.6133 17.8813 23.1097 18.1446 22.7549L18.2323 22.6532L21.2168 19.6685L18.2323 16.6837C17.8784 16.3298 17.8784 15.7558 18.2323 15.4019C18.5541 15.0801 19.0577 15.0508 19.4126 15.3141Z" fill="black"/>
</svg>
